<svg xmlns="http://www.w3.org/2000/svg" viewBox="0 0 19.97 19.06" style="outline: none;">
            <path fill="#ccc" xmlns="http://www.w3.org/2000/svg" d="M4.22,19.06a.65.65,0,0,1-.39-.13.68.68,0,0,1-.26-.65l1-6.07L.2,7.91A.66.66,0,0,1,0,7.23a.68.68,0,0,1,.54-.45l6.09-.89L9.39.37A.65.65,0,0,1,10,0h0a.65.65,0,0,1,.59.37l2.73,5.52,6.09.89a.68.68,0,0,1,.54.45.66.66,0,0,1-.17.68l-4.41,4.3,1,6.07a.68.68,0,0,1-.26.65.66.66,0,0,1-.7.05L10,16.12,4.53,19A.65.65,0,0,1,4.22,19.06Z" style="outline: none;"/>  
        </svg>