<svg xmlns="http://www.w3.org/2000/svg" xmlns:xlink="http://www.w3.org/1999/xlink" version="1.1" id="Layer_1" x="0px" y="0px" viewBox="0 0 19.97 19.06" style="outline: none;" xml:space="preserve">
        <path fill="#ccc" d="M10,0L10,0c0.25,0,0.48,0.14,0.59,0.37l2.73,5.52l6.09,0.89c0.25,0.04,0.46,0.21,0.54,0.45c0.08,0.24,0.01,0.5-0.17,0.68  l-4.41,4.3l1,6.07c0.04,0.25-0.06,0.5-0.26,0.65c-0.2,0.15-0.48,0.17-0.7,0.05L10,16.12" style="outline: none;"/>
        <path fill="#FFF33E" d="M10.03,16.12L4.56,19c-0.1,0.05-0.2,0.07-0.31,0.06c-0.14,0-0.28-0.05-0.39-0.13c-0.2-0.15-0.3-0.4-0.26-0.65l1-6.07  l-4.37-4.3c-0.19-0.17-0.27-0.43-0.2-0.68c0.08-0.24,0.29-0.41,0.54-0.45l6.09-0.89l2.76-5.52C9.53,0.14,9.77-0.01,10.03,0" style="outline: none;"/>
    </svg>