<svg id="icons" xmlns="http://www.w3.org/2000/svg" viewBox="0 0 60 60"><defs><style>.cls-1{fill:#FFFFFF;fill-rule:evenodd;}</style></defs><title>maggi_social_icons_01_msl</title><path class="cls-1" d="M30.24,22.24A7.76,7.76,0,1,0,38,30,7.77,7.77,0,0,0,30.24,22.24Zm0,12.5A4.74,4.74,0,1,1,35,30,4.74,4.74,0,0,1,30.24,34.74Zm9.52-12.5a1.86,1.86,0,1,1-1.86-1.86A1.86,1.86,0,0,1,39.76,22.24ZM36.18,15H24.06a9,9,0,0,0-8.94,8.94V36.07A9,9,0,0,0,23.81,45H36.43a9,9,0,0,0,8.69-8.93V23.94A9,9,0,0,0,36.18,15ZM42.1,36.07A5.92,5.92,0,0,1,36.18,42H24.06a5.92,5.92,0,0,1-5.92-5.91V23.94A5.92,5.92,0,0,1,24.06,18H36.18a5.92,5.92,0,0,1,5.92,5.92Z"/></svg>