<?xml version="1.0" encoding="UTF-8"?>
<svg width="60px" height="60px" viewBox="-10 -12 40 40" version="1.1" xmlns="http://www.w3.org/2000/svg" xmlns:xlink="http://www.w3.org/1999/xlink">
    <!-- Generator: Sketch 63.1 (92452) - https://sketch.com -->
    <title>Icon</title>
    <desc>Created with Sketch.</desc>
    <g id="Component---Social-Share" stroke="none" stroke-width="1" fill="none" fill-rule="evenodd">
        <g id="SocialShare_OneColumn_Tablet-Portrait" transform="translate(-256.000000, -114.000000)" fill="#fff">
            <g id="SHARE-/-EXPORT" transform="translate(120.000000, 59.000000)">
                <g id="ICONS" transform="translate(0.000000, 33.000000)">
                    <g id="Twitter" transform="translate(116.000000, 0.000000)">
                        <path d="M40.4285714,23.9257565 C39.6801143,24.2514129 38.8694187,24.4768673 38.0220184,24.5755036 C38.888569,24.0666655 39.549254,23.2603528 39.8668296,22.2990402 C39.056134,22.7703026 38.1592621,23.1131812 37.1985559,23.2963629 C36.4389278,22.5010098 35.3473613,22 34.1440847,22 C31.8316873,22 29.9549589,23.8412111 29.9549589,26.1098462 C29.9549589,26.4339369 29.9932595,26.7455024 30.0618813,27.0461083 C26.5765286,26.8738862 23.4917361,25.2409073 21.421909,22.7515147 C21.0596494,23.3574235 20.8537837,24.0666655 20.8537837,24.8197459 C20.8537837,26.2444926 21.5958575,27.5048454 22.7177453,28.2375723 C22.0315266,28.2203501 21.3899919,28.0309058 20.8234625,27.7240372 L20.8234625,27.7741382 C20.8234625,29.7672179 22.2693093,31.4299443 24.1827424,31.8103986 C23.8332496,31.9012066 23.459819,31.949742 23.0800049,31.949742 C22.8119009,31.949742 22.5501802,31.9262571 22.2884596,31.8777218 C22.8246677,33.5107007 24.3694577,34.6959021 26.203098,34.7334778 C24.7684221,35.8341338 22.9603156,36.4885778 20.9974109,36.4885778 C20.660685,36.4885778 20.3303425,36.46979 20,36.4337799 C21.8575781,37.6017591 24.0582655,38.279688 26.426518,38.279688 C34.1313179,38.279688 38.3459774,32.0170652 38.3459774,26.5873712 L38.3332106,26.0550483 C39.156673,25.47419 39.8668296,24.7524227 40.4285714,23.9257565 Z" id="Icon"></path>
                    </g>
                </g>
            </g>
        </g>
    </g>
</svg>