<svg id="icons" xmlns="http://www.w3.org/2000/svg" viewBox="0 0 60 60"><defs><style>.cls-1{fill:#FFFFFF;}</style></defs><title>maggi_social_icons_01_msl</title><path class="cls-1" d="M44.38,22.78a3.76,3.76,0,0,0-2.64-2.64C39.39,19.5,30,19.5,30,19.5s-9.39,0-11.74.62a3.81,3.81,0,0,0-2.64,2.66A39.52,39.52,0,0,0,15,30a39.4,39.4,0,0,0,.62,7.22,3.76,3.76,0,0,0,2.64,2.64c2.37.64,11.74.64,11.74.64s9.39,0,11.74-.62a3.73,3.73,0,0,0,2.64-2.64A39.52,39.52,0,0,0,45,30,37.89,37.89,0,0,0,44.38,22.78ZM27,34.5v-9L34.82,30Z"/></svg>